<?xml version="1.0" encoding="utf-8"?>
<!-- Generator: Adobe Illustrator 24.0.0, SVG Export Plug-In . SVG Version: 6.00 Build 0)  -->
<svg version="1.1" id="Capa_1" xmlns="http://www.w3.org/2000/svg" xmlns:xlink="http://www.w3.org/1999/xlink" x="0px" y="0px"
	 viewBox="0 0 841.9 595.3" style="enable-background:new 0 0 841.9 595.3;" xml:space="preserve">
<style type="text/css">
	.st0{fill:none;}
	.st1{fill:#FFED91;}
	.st2{fill:#87ECD5;}
	.st3{fill:#FFFFFF;}
	.st4{fill:url(#SVGID_1_);}
</style>
<g>
	<g>
		<rect x="347.4" y="353.3" class="st0" width="86.1" height="80.3"/>
		<polygon class="st0" points="635.3,88.4 347.4,88.4 347.4,315.4 472.3,315.4 472.3,433.6 635.3,433.6 		"/>
		<polygon class="st0" points="308.7,353.3 206.6,353.3 206.6,506.9 433.6,506.9 433.6,471.4 308.7,471.4 		"/>
		<polygon class="st1" points="167.9,298.8 206.6,298.8 206.6,88.4 291.7,88.4 291.7,50.5 167.9,50.5 		"/>
		<polygon class="st2" points="674,488 635.3,488 635.3,506.9 489.3,506.9 489.3,544.8 674,544.8 		"/>
		<polygon class="st3" points="472.3,471.4 472.3,433.6 472.3,315.4 347.4,315.4 347.4,353.3 433.6,353.3 433.6,433.6 433.6,471.4 
			433.6,506.9 206.6,506.9 206.6,353.3 308.7,353.3 308.7,315.4 167.9,315.4 167.9,544.8 472.3,544.8 		"/>
		<linearGradient id="SVGID_1_" gradientUnits="userSpaceOnUse" x1="308.7202" y1="260.9571" x2="674" y2="260.9571">
			<stop  offset="0" style="stop-color:#FFED91"/>
			<stop  offset="1" style="stop-color:#87ECD5"/>
		</linearGradient>
		<polygon class="st4" points="308.7,471.4 433.6,471.4 433.6,433.6 347.4,433.6 347.4,353.3 347.4,315.4 347.4,88.4 635.3,88.4 
			635.3,433.6 472.3,433.6 472.3,471.4 635.3,471.4 674,471.4 674,50.5 308.7,50.5 308.7,315.4 308.7,353.3 		"/>
	</g>
</g>
</svg>
