<svg xmlns="http://www.w3.org/2000/svg" xmlns:xlink="http://www.w3.org/1999/xlink" viewBox="0 0 657.88 127.55"><defs><style>.cls-1{fill:none;}.cls-2{fill:#fbed96;}.cls-3{fill:#abecd6;}.cls-4,.cls-6{fill:#fff;}.cls-5{fill:url(#Degradado_sin_nombre_21);}.cls-6{font-size:86.3px;font-family:Antonio-Bold, Antonio;font-weight:700;letter-spacing:0.2em;}.cls-7{font-family:Antonio-Light, Antonio;font-weight:300;letter-spacing:0.2em;}</style><linearGradient id="Degradado_sin_nombre_21" x1="32.05" y1="47.89" x2="115.18" y2="47.89" gradientUnits="userSpaceOnUse"><stop offset="0" stop-color="#fbed96"/><stop offset="1" stop-color="#abecd6"/></linearGradient></defs><title>logo_1</title><g id="Capa_2" data-name="Capa 2"><g id="Objects"><rect class="cls-1" x="40.86" y="68.89" width="19.6" height="18.27"/><polygon class="cls-1" points="106.36 8.61 40.86 8.61 40.86 60.28 69.28 60.28 69.28 87.16 106.36 87.16 106.36 8.61"/><polygon class="cls-1" points="32.05 68.89 8.81 68.89 8.81 103.86 60.46 103.86 60.46 95.77 32.05 95.77 32.05 68.89"/><polygon class="cls-2" points="0 56.5 8.81 56.5 8.81 8.61 28.17 8.61 28.17 0 0 0 0 56.5"/><polygon class="cls-3" points="115.18 99.56 106.36 99.56 106.36 103.86 73.15 103.86 73.15 112.47 115.18 112.47 115.18 99.56"/><polygon class="cls-4" points="69.28 95.77 69.28 87.16 69.28 60.28 40.86 60.28 40.86 68.89 60.46 68.89 60.46 87.16 60.46 95.77 60.46 103.86 8.81 103.86 8.81 68.89 32.05 68.89 32.05 60.28 0 60.28 0 112.47 69.28 112.47 69.28 95.77"/><polygon class="cls-5" points="32.05 95.77 60.46 95.77 60.46 87.16 40.86 87.16 40.86 68.89 40.86 60.28 40.86 8.61 106.36 8.61 106.36 87.16 69.28 87.16 69.28 95.77 106.36 95.77 115.18 95.77 115.18 0 32.05 0 32.05 60.28 32.05 68.89 32.05 95.77"/><text class="cls-6" transform="translate(166.12 96.71) scale(1.02 1)">Plus<tspan class="cls-7" x="210.63" y="0">Condo</tspan></text></g></g></svg>